<svg width="25" height="24" viewBox="0 0 25 24" fill="none" xmlns="http://www.w3.org/2000/svg">
<g opacity="0.64">
<path fill-rule="evenodd" clip-rule="evenodd" d="M3.80884 7.83317C3.80884 6.9127 4.55503 6.1665 5.4755 6.1665H19.4556C20.3761 6.1665 21.1223 6.9127 21.1223 7.83317V8.6665H3.80884V7.83317ZM3.80884 11.1665H21.1223V16.1665C21.1223 17.087 20.3761 17.8332 19.4556 17.8332H5.47551C4.55503 17.8332 3.80884 17.087 3.80884 16.1665V11.1665ZM16.7616 13.6665C16.3013 13.6665 15.9282 14.0396 15.9282 14.4998C15.9282 14.9601 16.3013 15.3332 16.7616 15.3332H18.5576C19.0178 15.3332 19.3909 14.9601 19.3909 14.4998C19.3909 14.0396 19.0178 13.6665 18.5576 13.6665H16.7616Z" fill="#161616"/>
<path fill-rule="evenodd" clip-rule="evenodd" d="M3.80884 7.83317C3.80884 6.9127 4.55503 6.1665 5.4755 6.1665H19.4556C20.3761 6.1665 21.1223 6.9127 21.1223 7.83317V8.6665H3.80884V7.83317ZM3.80884 11.1665H21.1223V16.1665C21.1223 17.087 20.3761 17.8332 19.4556 17.8332H5.47551C4.55503 17.8332 3.80884 17.087 3.80884 16.1665V11.1665ZM16.7616 13.6665C16.3013 13.6665 15.9282 14.0396 15.9282 14.4998C15.9282 14.9601 16.3013 15.3332 16.7616 15.3332H18.5576C19.0178 15.3332 19.3909 14.9601 19.3909 14.4998C19.3909 14.0396 19.0178 13.6665 18.5576 13.6665H16.7616Z" fill="black" fill-opacity="0.2"/>
</g>
</svg>
