<svg width="80" height="80" viewBox="0 0 80 80" fill="none" xmlns="http://www.w3.org/2000/svg">
<path d="M48.6766 31.3173C43.8924 26.5329 36.1075 26.5329 31.3233 31.3173C26.539 36.1016 26.539 43.8863 31.3233 48.6706C33.7154 51.0628 36.8577 52.2588 40 52.2588C43.1422 52.2588 46.2845 51.0628 48.6766 48.6706C53.4609 43.8864 53.4609 36.1016 48.6766 31.3173Z" fill="#D5E7F6"/>
<path d="M48.6766 48.6706C53.4609 43.8863 53.4609 36.1016 48.6766 31.3173C46.2845 28.9251 43.1422 27.729 40 27.729V52.2589C43.1422 52.2588 46.2845 51.0628 48.6766 48.6706Z" fill="#BDD0E0"/>
<path d="M59.2196 23.9948L62.3676 22.901C63.1316 22.6356 63.5358 21.801 63.2703 21.037C63.005 20.273 62.17 19.8688 61.4063 20.1343L56.1605 21.9569C55.7374 22.104 55.4048 22.4365 55.2578 22.8596L53.4352 28.1054C53.1697 28.8694 53.5739 29.704 54.3379 29.9694C54.4971 30.0247 54.6591 30.051 54.8187 30.051C55.4249 30.051 55.9918 29.6717 56.2019 29.0667L57.2105 26.1639C60.3593 30.0706 62.071 34.8958 62.071 39.9847C62.071 45.881 59.7749 51.4243 55.6056 55.5937C51.4363 59.763 45.893 62.0591 39.9966 62.0591C34.1004 62.0591 28.5571 59.763 24.3878 55.5937C24.3515 55.5573 24.3136 55.5233 24.2744 55.4914C20.1812 51.3362 17.929 45.8428 17.929 40.0034C17.929 34.1071 20.2251 28.5637 24.3944 24.3944C28.5636 20.2251 34.1069 17.929 40.0033 17.929C40.8121 17.929 41.4678 17.2733 41.4678 16.4645C41.4678 15.6557 40.8121 15 40.0033 15C33.3247 15 27.0457 17.6008 22.3233 22.3232C17.6008 27.0458 15 33.3247 15 40.0034C15 46.682 17.6008 52.9609 22.3233 57.6834C22.3625 57.7226 22.4034 57.7592 22.446 57.7931C27.1535 62.4345 33.3788 64.9881 39.9967 64.9881C46.6754 64.9881 52.9543 62.3872 57.6768 57.6647C62.3993 52.9423 65.0001 46.6634 65.0001 39.9848C65 34.0741 62.9615 28.4775 59.2196 23.9948Z" fill="#40DBA3"/>
<path d="M44.3498 41.4585H39.9999C39.1911 41.4585 38.5354 40.8028 38.5354 39.994V36.0885C38.5354 35.2797 39.1911 34.624 39.9999 34.624C40.8087 34.624 41.4644 35.2797 41.4644 36.0885V38.5295H44.3498C45.1586 38.5295 45.8143 39.1852 45.8143 39.994C45.8143 40.8028 45.1586 41.4585 44.3498 41.4585Z" fill="#54726F"/>
<path d="M62.3677 22.901C63.1317 22.6356 63.5359 21.801 63.2704 21.037C63.005 20.2729 62.1701 19.8687 61.4064 20.1343L56.1606 21.9569C55.7374 22.1039 55.4049 22.4365 55.2579 22.8596L53.4352 28.1054C53.1698 28.8694 53.574 29.704 54.338 29.9694C54.4971 30.0247 54.6592 30.051 54.8187 30.051C55.4249 30.051 55.9919 29.6717 56.202 29.0667L57.2105 26.1639C60.3594 30.0706 62.0711 34.8958 62.0711 39.9847C62.0711 45.8809 59.7749 51.4242 55.6056 55.5937C51.4371 59.7622 45.8951 62.0581 40 62.059V64.988C46.6775 64.9871 52.955 62.3865 57.6767 57.6647C62.3992 52.9422 65 46.6634 65 39.9848C65 34.0741 62.9616 28.4775 59.2196 23.9948L62.3677 22.901Z" fill="#1299A5"/>
<path d="M44.3499 41.4585C45.1587 41.4585 45.8144 40.8028 45.8144 39.994C45.8144 39.1852 45.1587 38.5295 44.3499 38.5295H41.4645V36.0885C41.4645 35.2797 40.8088 34.624 40 34.624V41.4585H44.3499Z" fill="#293939"/>
<rect width="80" height="80" rx="16" fill="#5FD068" fill-opacity="0.1"/>
</svg>
