<svg width="100" height="100" viewBox="0 0 100 100" fill="none" xmlns="http://www.w3.org/2000/svg">
<g clip-path="url(#clip0_3523_8345)">
<path d="M72.2653 9.76559H63.9285C63.2521 8.59899 61.9894 7.81266 60.5466 7.81266H48.632C47.7246 3.36073 43.7783 0 39.0623 0C34.3464 0 30.4001 3.36073 29.4929 7.81266H17.5781C16.1353 7.81266 14.8726 8.59899 14.1962 9.76559H5.85935C2.62851 9.76559 0 12.3941 0 15.6249V94.1406C0 97.3713 2.62851 99.9998 5.85935 99.9998H72.2653C75.4962 99.9998 78.1247 97.3713 78.1247 94.1406V15.6249C78.1247 12.3941 75.4962 9.76559 72.2653 9.76559ZM31.2497 11.7189C32.3282 11.7189 33.2028 10.8443 33.2028 9.76578C33.2028 6.53474 35.8313 3.90623 39.0623 3.90623C42.2934 3.90623 44.9221 6.53474 44.9221 9.76578C44.9221 10.8443 45.7967 11.7189 46.8752 11.7189H60.5466V19.5312H17.5781L17.5777 11.7189H31.2497ZM74.2185 94.1406C74.2185 95.2176 73.3423 96.0936 72.2653 96.0936H5.85935C4.7824 96.0936 3.90623 95.2176 3.90623 94.1406V15.6249C3.90623 14.548 4.7824 13.6718 5.85935 13.6718H13.6718V17.5781H9.76578C8.68727 17.5781 7.81266 18.4527 7.81266 19.5312V90.2342C7.81266 91.3127 8.68727 92.1873 9.76578 92.1873H30.2727C31.3512 92.1873 32.2258 91.3127 32.2258 90.2342C32.2258 89.1557 31.3512 88.2811 30.2727 88.2811H11.7189V21.4843H14.196C14.8724 22.6511 16.1351 23.4374 17.5781 23.4374H60.5466C61.9896 23.4374 63.2523 22.6511 63.9287 21.4843H66.406V88.2811H47.8508C46.7723 88.2811 45.8977 89.1557 45.8977 90.2342C45.8977 91.3127 46.7723 92.1873 47.8508 92.1873H68.3591C69.4376 92.1873 70.3122 91.3127 70.3122 90.2342V19.5312C70.3122 18.4527 69.4376 17.5781 68.3591 17.5781H64.4529V13.6718H72.2653C73.3423 13.6718 74.2185 14.548 74.2185 15.6249V94.1406Z" fill="#DFDFDF"/>
<path d="M39.0631 11.7192C40.1416 11.7192 41.0162 10.8446 41.0162 9.76611C41.0162 8.68759 40.1416 7.81299 39.0631 7.81299H39.0616C37.983 7.81299 37.1092 8.68759 37.1092 9.76611C37.1092 10.8446 37.9844 11.7192 39.0631 11.7192Z" fill="#DFDFDF"/>
<path d="M91.7858 21.2621C91.455 20.6004 90.7788 20.1826 90.0389 20.1826H84.1796C83.1011 20.1826 82.2265 21.0572 82.2265 22.1357C82.2265 23.2142 83.1011 24.0889 84.1796 24.0889H86.1327L82.6171 28.7763C82.1733 29.3681 82.1017 30.1599 82.4327 30.8218C82.7636 31.4836 83.4397 31.9013 84.1796 31.9013H90.0389C91.1175 31.9013 91.9921 31.0267 91.9921 29.9482C91.9921 28.8697 91.1175 27.9951 90.0389 27.9951H88.0858L91.6014 23.3076C92.0452 22.7156 92.1169 21.924 91.7858 21.2621Z" fill="#DFDFDF"/>
<path d="M98.0469 10.4166H94.1406L99.6094 3.12499C100.053 2.53319 100.125 1.7414 99.7937 1.07949C99.4629 0.417772 98.7867 0 98.0469 0H90.2344C89.1559 0 88.2813 0.874606 88.2813 1.95312C88.2813 3.03163 89.1559 3.90623 90.2344 3.90623H94.1406L88.6719 11.1978C88.2282 11.7896 88.1565 12.5814 88.4875 13.2431C88.8184 13.905 89.4946 14.3228 90.2344 14.3228H98.0469C99.1254 14.3228 100 13.4482 100 12.3697C100 11.2912 99.1254 10.4166 98.0469 10.4166Z" fill="#DFDFDF"/>
<path d="M29.4575 46.9347C28.7262 47.6659 27.754 48.0688 26.7198 48.0688C25.6858 48.0688 24.7138 47.6661 23.9823 46.9347C23.2194 46.1722 21.9831 46.1722 21.22 46.9347C20.4573 47.6974 20.4573 48.9341 21.22 49.697C22.6892 51.1659 24.6423 51.9751 26.7196 51.9751C28.7971 51.9751 30.7503 51.1659 32.2194 49.697C32.9821 48.9343 32.9821 47.6976 32.2194 46.9347C31.4569 46.1722 30.2204 46.1722 29.4575 46.9347Z" fill="#DFDFDF"/>
<path d="M51.4049 51.9751C53.4824 51.9751 55.4355 51.1659 56.9046 49.697C57.6673 48.9343 57.6673 47.6976 56.9046 46.9347C56.1418 46.1722 54.9054 46.1722 54.1424 46.9347C53.4111 47.6659 52.4388 48.0688 51.4047 48.0688C50.3705 48.0688 49.3984 47.6661 48.667 46.9347C47.9041 46.1722 46.6678 46.1722 45.9047 46.9347C45.142 47.6974 45.142 48.9341 45.9047 49.697C47.3744 51.1659 49.3275 51.9751 51.4049 51.9751Z" fill="#DFDFDF"/>
<path d="M41.8211 59.4971H36.3038C35.2253 59.4971 34.3506 60.3717 34.3506 61.4502C34.3506 62.5287 35.2253 63.4033 36.3038 63.4033H41.8211C42.8996 63.4033 43.7742 62.5287 43.7742 61.4502C43.7742 60.3717 42.8996 59.4971 41.8211 59.4971Z" fill="#DFDFDF"/>
<path d="M39.0625 88.2812H39.061C37.9825 88.2812 37.1086 89.1559 37.1086 90.2344C37.1086 91.3129 37.9838 92.1875 39.0625 92.1875C40.1413 92.1875 41.0157 91.3129 41.0157 90.2344C41.0157 89.1559 40.1411 88.2812 39.0625 88.2812Z" fill="#DFDFDF"/>
</g>
<defs>
<clipPath id="clip0_3523_8345">
<rect width="100" height="100" fill="white"/>
</clipPath>
</defs>
</svg>
